<svg xmlns="http://www.w3.org/2000/svg" version="1.1" xmlns:xlink="http://www.w3.org/1999/xlink" xmlns:svgjs="http://svgjs.dev/svgjs" viewBox="0 0 600 600"><path d="M133.54501338245746 325.54471894655785C136.69461945138647 291.8833013033286 154.01745092314758 270.8203028495526 172.52138514759417 234.59983369265174C191.0253193720408 198.37936453575068 213.07255676828103 125.93843639447462 244.56861872913714 108.22190400515171C276.0646806899932 90.5053716158288 326.064687047822 101.13529003216993 361.4977569127309 128.3006393567142C396.93082677763977 155.4659886812585 450.8678283238637 228.10376537396684 457.16703791859027 271.2139999524172C463.46624751331683 314.32423453086767 422.7182108108429 353.8911799247479 399.29301448109027 386.9620468274172C375.86781815133764 420.0329137300864 357.56073756458636 461.3714859143313 316.61585994007464 469.63920136843285C275.6709823155629 477.9069168225344 184.13555649362283 460.5840866223391 153.62374873401996 436.5683395520266C123.1119409744171 412.5525924817141 130.39540731352844 359.206136589787 133.54501338245746 325.54471894655785C136.69461945138647 291.8833013033286 154.01745092314758 270.8203028495526 172.52138514759417 234.59983369265174 " fill="hsl(340, 45%, 50%)" transform="matrix(1.1547309375,0,0,1.1547309375,-47.23635721239572,-42.61798131009817)" stroke-width="21" stroke="hsl(340, 45%, 30%)" fill-opacity="0.05"></path><path d="M100.60916953594176 322.0661293903903C103.75877560487079 288.40471174716095 121.08160707663188 267.34171329338506 139.58554130107848 231.12124413648397C158.0894755255251 194.90077497958293 180.13671292176534 122.45984683830687 211.63277488262145 104.74331444898397C243.12883684347753 87.02678205966106 293.1288432013063 97.65670047600219 328.5619130662152 124.82204980054647C363.99498293112407 151.98739912509075 417.931984477348 224.6251758177991 424.2311940720746 267.73541039624956C430.53040366680113 310.8456449747001 389.7823669643272 350.41259036858037 366.3571706345746 383.4834572712497C342.93197430482195 416.55432417391887 324.62489371807067 457.89289635816374 283.68001609355895 466.1606118122653C242.73513846904723 474.42832726636686 151.19971264710713 457.10549706617155 120.68790488750426 433.08974999585905C90.1760971279014 409.07400292554655 97.45956346701273 355.72754703361943 100.60916953594176 322.0661293903903C103.75877560487079 288.40471174716095 121.08160707663188 267.34171329338506 139.58554130107848 231.12124413648397 " fill-opacity="0.05" fill="none" opacity="1" stroke-opacity="1" stroke-width="20" stroke="hsl(340, 45%, 50%)" transform="matrix(0.8846071502753439,0,0,0.8846071502753439,63.03085895364026,38.601772984849816)"></path></svg>